# xmcd CD database file
#
# Track frame offsets:
#	150
#	11910
#	24007
#	36423
#	48725
#	64854
#	75170
#	99343
#	112359
#	125712
#
# Disc length: 1835 seconds
#
# Revision: 0
# Processed by: cddbd v1.5.2PL0 Copyright (c) Steve Scherf et al.
# Submitted via: CDex 1.70beta2
#
DISCID=8207290a
DTITLE=Easey, Bert - Cdn. - Vintage Country Classics
DYEAR=1900
DGENRE=Country
TTITLE0=I've Been Everywhere
TTITLE1=Among My Souvenirs
TTITLE2=I Don't Hurt Anymore
TTITLE3=Golden Rocket
TTITLE4=Mother
TTITLE5=Wreck of the Old 97
TTITLE6=Simple Folks
TTITLE7=My Nova Scotia Home
TTITLE8=With This Ring I Thee Wed
TTITLE9=Movin' On
EXTD=
EXTT0=
EXTT1=
EXTT2=
EXTT3=
EXTT4=
EXTT5=
EXTT6=
EXTT7=
EXTT8=
EXTT9=
PLAYORDER=
